<mxfile host="app.diagrams.net" modified="2023-04-26T20:11:22.833Z" agent="Mozilla/5.0 (Windows NT 10.0; Win64; x64; rv:109.0) Gecko/20100101 Firefox/112.0" version="21.2.2" etag="VnMJnNfZKWHSfWM6QURO" type="github">
  <diagram name="Page-1" id="6Ub-Pg1dffmzzFVFk-PS">
    <mxGraphModel>
      <root>
        <mxCell id="0" />
        <mxCell id="1" parent="0" />
      </root>
    </mxGraphModel>
  </diagram>
</mxfile>
